<svg xmlns="http://www.w3.org/2000/svg" width="105" height="96" fill="none"><path fill="#5E47FF" d="M45.339 63.743 20 20l12.586 10.1 16.088 27.866-3.335 5.777ZM69.124 37.26 43.911 81.075l2.454-15.95L62.453 37.26h6.671ZM34.443 30.18l50.552-.073-15.04 5.85H37.779l-3.336-5.778Z"/><path fill="#5E47FF" d="M45.339 63.743 20 20l12.586 10.1 16.088 27.866-3.335 5.777ZM69.124 37.26 43.911 81.075l2.454-15.95L62.453 37.26h6.671Z"/><g filter="url(#a)"><path fill="#5E47FF" d="m34.443 30.18 50.552-.073-15.04 5.85H37.779l-3.336-5.778Z"/></g><path fill="#57E1FF" d="m49.583 54.664 9.53-16.507h-19.06l9.53 16.507Z"/><g filter="url(#b)"><path fill="#5E47FF" d="M45.339 63.743 20 20l12.586 10.1 16.088 27.866-3.335 5.777Z"/></g><g filter="url(#c)"><path fill="#5E47FF" d="M69.124 37.26 43.911 81.075l2.454-15.95L62.453 37.26h6.671Z"/></g><path fill="#5E47FF" d="m34.443 30.18 50.552-.073-15.04 5.85H37.779l-3.336-5.778Z"/><defs><filter id="a" width="90.552" height="45.85" x="14.443" y="10.107" color-interpolation-filters="sRGB" filterUnits="userSpaceOnUse"><feFlood flood-opacity="0" result="BackgroundImageFix"/><feBlend in="SourceGraphic" in2="BackgroundImageFix" result="shape"/><feGaussianBlur result="effect1_foregroundBlur_554_633" stdDeviation="10"/></filter><filter id="b" width="68.674" height="83.743" x="0" y="0" color-interpolation-filters="sRGB" filterUnits="userSpaceOnUse"><feFlood flood-opacity="0" result="BackgroundImageFix"/><feBlend in="SourceGraphic" in2="BackgroundImageFix" result="shape"/><feGaussianBlur result="effect1_foregroundBlur_554_633" stdDeviation="10"/></filter><filter id="c" width="65.213" height="83.815" x="23.911" y="17.26" color-interpolation-filters="sRGB" filterUnits="userSpaceOnUse"><feFlood flood-opacity="0" result="BackgroundImageFix"/><feBlend in="SourceGraphic" in2="BackgroundImageFix" result="shape"/><feGaussianBlur result="effect1_foregroundBlur_554_633" stdDeviation="10"/></filter></defs></svg>